<svg xmlns="http://www.w3.org/2000/svg" viewBox="0 0 375.83 72.3"><defs><style>.cls-1{fill:#2a00a5;}</style></defs><g id="Layer_2" data-name="Layer 2"><g id="Logos"><path class="cls-1" d="M40.1,11.34H20.67c-5.52,0-7.52,1.9-7.52,8.19V30.79H39a1.91,1.91,0,0,1,1.91,1.9v6.86A1.92,1.92,0,0,1,39,41.46H13.15V69.64a1.91,1.91,0,0,1-1.91,1.9H1.91A1.91,1.91,0,0,1,0,69.64V19.53C0,3.33,9.62,0,22,0,33.34,0,37.06.86,40.1,1.33c1.43.19,1.91.67,1.91,2v6.1A1.92,1.92,0,0,1,40.1,11.34Z"/><path class="cls-1" d="M89.12,71a103.14,103.14,0,0,1-16.2,1.33c-12.38,0-22-3.33-22-19.53V2.67A1.91,1.91,0,0,1,52.82.76h9.43a1.92,1.92,0,0,1,1.91,1.91v50.1c0,6.29,1.9,8.2,7.43,8.2H89.12a1.9,1.9,0,0,1,1.9,1.9V69C91,70.3,90.55,70.68,89.12,71Z"/><path class="cls-1" d="M136,71c-3.05.48-6.77,1.33-18.1,1.33-12.39,0-22-3.33-22-19.53V19.53c0-16.2,9.62-19.53,22-19.53,11.33,0,15,.86,18.1,1.33,1.43.19,1.9.67,1.9,2v6.1a1.91,1.91,0,0,1-1.9,1.91H116.55c-5.52,0-7.52,1.9-7.52,8.19V30.79h25.81a1.91,1.91,0,0,1,1.91,1.9v6.86a1.92,1.92,0,0,1-1.91,1.91H109V52.77c0,6.29,2,8.2,7.52,8.2H136a1.9,1.9,0,0,1,1.9,1.9V69C137.89,70.3,137.42,70.78,136,71Z"/><path class="cls-1" d="M251.66,70.78a72,72,0,0,1-15,1.52c-11.43,0-27-5.62-27-29.15v-14c0-23.91,15.53-29.15,27-29.15a72,72,0,0,1,15,1.52c1.24.38,2.1.86,2.1,2.19V10.1c0,1.14-.48,2-1.9,2h-.2c-3.33-.29-9.81-.76-14.86-.76-8,0-13.81,4.28-13.81,17.81v14C223,56.39,228.8,61,236.8,61c5,0,11.53-.48,14.86-.77h.2c1.42,0,1.9.86,1.9,2v6.38C253.76,69.92,252.9,70.4,251.66,70.78Z"/><path class="cls-1" d="M314.92,71.54h-10.1A2,2,0,0,1,303,69.92l-4.38-18.1H276.72l-4.38,18.1a2,2,0,0,1-1.81,1.62h-10.1a1.63,1.63,0,0,1-1.71-1.62,3.82,3.82,0,0,0,.09-.48L274.43,9.72C276.72.86,283.58,0,287.68,0s10.95.86,13.24,9.72l15.62,59.72a3.82,3.82,0,0,0,.09.48A1.63,1.63,0,0,1,314.92,71.54ZM289.2,12.67c-.29-1.14-.57-1.52-1.52-1.52s-1.24.38-1.53,1.52L279.29,41h16.77Z"/><path class="cls-1" d="M374.69,71.54H363.07c-1.05,0-1.43-1-1.91-1.9L347.45,44.2h-1.34c-2.47,0-6.28-.28-8.48-.38V69.64a1.83,1.83,0,0,1-1.81,1.9H326.3a1.91,1.91,0,0,1-1.91-1.9V4.1c0-1.91,1.15-2.58,3.05-2.86A130.48,130.48,0,0,1,346.11,0c14.67,0,27.44,5.24,27.44,21.53v.86c0,10.09-5.05,16.38-12.86,19.43l14.95,27.82a1.27,1.27,0,0,1,.19.76A1.05,1.05,0,0,1,374.69,71.54Zm-14.29-50c0-7.15-4.76-10.19-14.29-10.19-2,0-6.76.19-8.48.38V33.15c1.53.1,6.86.29,8.48.29,9.81,0,14.29-2.67,14.29-11Z"/><path class="cls-1" d="M165.49,2.87c-.27-.48-1.27-2-2.8-2H149.41a1.86,1.86,0,0,0-1.92,1.72,1.8,1.8,0,0,0,.26.81l19.34,32.87-19.36,32.9a1.79,1.79,0,0,0-.24.78,1.86,1.86,0,0,0,1.92,1.72h13.28c1.54,0,2.53-1.56,2.8-2l19.58-33.37Z"/><path class="cls-1" d="M202.86.83H189.58c-1.54,0-2.54,1.56-2.8,2l-7.61,13,9,15.32L204.53,3.33a1.67,1.67,0,0,0,.24-.78A1.85,1.85,0,0,0,202.86.83Z"/><path class="cls-1" d="M204.52,69.1,188.16,41.31l-9,15.32,7.6,13c.27.48,1.27,2,2.81,2h13.28a1.85,1.85,0,0,0,1.91-1.72A1.79,1.79,0,0,0,204.52,69.1Z"/></g></g></svg>